<svg width="184" height="135" viewBox="0 0 184 135" fill="none" xmlns="http://www.w3.org/2000/svg">
<g opacity="0.8" clip-path="url(#clip0_2234_9590)">
<path d="M6.66519 39.1131C6.65134 40.5852 5.53322 41.6788 4.05624 41.6649C2.57927 41.651 1.48193 40.5365 1.49578 39.0644C1.50963 37.5923 2.62775 36.4987 4.10473 36.5126C5.5817 36.5265 6.67789 37.7637 6.66519 39.1131Z" fill="#FFCF2D"/>
<path d="M28.6969 39.3201C28.6831 40.7922 27.565 41.8858 26.088 41.8719C24.611 41.858 23.5137 40.7435 23.5275 39.2715C23.5414 37.7994 24.6595 36.7057 26.1365 36.7196C27.4904 36.7324 28.7096 37.9707 28.6969 39.3201Z" fill="#FFCF2D"/>
<path d="M50.6051 39.5262C50.5913 40.9982 49.4732 42.0919 47.9962 42.078C46.5192 42.0641 45.4219 40.9496 45.4357 39.4775C45.4496 38.0054 46.5677 36.9118 48.0447 36.9257C49.5216 36.9396 50.6178 38.1767 50.6051 39.5262Z" fill="#FFCF2D"/>
<path d="M72.6364 39.7332C72.6225 41.2053 71.5044 42.2989 70.0274 42.285C68.5505 42.2711 67.4531 41.1566 67.467 39.6845C67.4808 38.2125 68.5989 37.1188 70.0759 37.1327C71.5529 37.1466 72.6491 38.3838 72.6364 39.7332Z" fill="#FFCF2D"/>
<path d="M94.6681 39.9412C94.6543 41.4133 93.5361 42.5069 92.0592 42.493C90.5822 42.4791 89.4849 41.3646 89.4987 39.8925C89.5126 38.4205 90.6307 37.3268 92.1077 37.3407C93.4615 37.3535 94.6808 38.5918 94.6681 39.9412Z" fill="#FFCF2D"/>
<path d="M116.7 40.1482C116.686 41.6203 115.568 42.7139 114.091 42.7001C112.614 42.6862 111.517 41.5717 111.53 40.0996C111.544 38.6275 112.662 37.5339 114.139 37.5478C115.616 37.5617 116.713 38.7988 116.7 40.1482Z" fill="#FFCF2D"/>
<path d="M138.608 40.3543C138.594 41.8264 137.476 42.92 135.999 42.9061C134.522 42.8922 133.425 41.7777 133.439 40.3056C133.453 38.8336 134.571 37.7399 136.048 37.7538C137.525 37.7677 138.621 39.0049 138.608 40.3543Z" fill="#FFCF2D"/>
<path d="M160.64 40.5613C160.626 42.0334 159.508 43.127 158.031 43.1131C156.554 43.0992 155.457 41.9847 155.47 40.5127C155.484 39.0406 156.602 37.9469 158.079 37.9608C159.556 37.9747 160.652 39.2119 160.64 40.5613Z" fill="#FFCF2D"/>
<path d="M182.671 40.7693C182.657 42.2414 181.539 43.335 180.062 43.3211C178.585 43.3072 177.488 42.1928 177.502 40.7207C177.515 39.2486 178.634 38.155 180.111 38.1689C181.464 38.1816 182.684 39.4199 182.671 40.7693Z" fill="#FFCF2D"/>
<path d="M6.49331 57.3904C6.47946 58.8625 5.36134 59.9561 3.88437 59.9422C2.40739 59.9283 1.31005 58.8139 1.3239 57.3418C1.33776 55.8697 2.45588 54.776 3.93285 54.7899C5.40982 54.8038 6.50717 55.9183 6.49331 57.3904Z" fill="#FFCF2D"/>
<path d="M28.5246 57.5984C28.5107 59.0705 27.3926 60.1641 25.9156 60.1502C24.4386 60.1364 23.3413 59.0219 23.3552 57.5498C23.369 56.0777 24.4871 54.9841 25.9641 54.998C27.318 55.0107 28.5384 56.1263 28.5246 57.5984Z" fill="#FFCF2D"/>
<path d="M50.4328 57.8045C50.4189 59.2766 49.3008 60.3702 47.8238 60.3563C46.3468 60.3424 45.2495 59.2279 45.2634 57.7558C45.2772 56.2838 46.3953 55.1901 47.8723 55.204C49.3493 55.2179 50.4466 56.3324 50.4328 57.8045Z" fill="#FFCF2D"/>
<path d="M72.4645 58.0115C72.4507 59.4836 71.3325 60.5772 69.8556 60.5633C68.3786 60.5494 67.2812 59.435 67.2951 57.9629C67.3089 56.4908 68.4271 55.3971 69.904 55.411C71.381 55.4249 72.4784 56.5394 72.4645 58.0115Z" fill="#FFCF2D"/>
<path d="M94.4962 58.2185C94.4824 59.6906 93.3643 60.7843 91.8873 60.7704C90.4103 60.7565 89.313 59.642 89.3268 58.1699C89.3407 56.6978 90.4588 55.6042 91.9358 55.6181C93.2897 55.6308 94.5101 56.7465 94.4962 58.2185Z" fill="#FFCF2D"/>
<path d="M116.528 58.4266C116.514 59.8986 115.396 60.9923 113.919 60.9784C112.442 60.9645 111.345 59.85 111.359 58.3779C111.372 56.9058 112.491 55.8122 113.968 55.8261C115.444 55.84 116.542 56.9545 116.528 58.4266Z" fill="#FFCF2D"/>
<path d="M138.436 58.6326C138.422 60.1047 137.304 61.1983 135.827 61.1844C134.35 61.1705 133.253 60.056 133.267 58.584C133.281 57.1119 134.399 56.0182 135.876 56.0321C137.353 56.046 138.45 57.1605 138.436 58.6326Z" fill="#FFCF2D"/>
<path d="M160.467 58.8396C160.454 60.3117 159.335 61.4054 157.858 61.3915C156.382 61.3776 155.284 60.2631 155.298 58.791C155.312 57.3189 156.43 56.2253 157.907 56.2392C159.384 56.2531 160.481 57.3676 160.467 58.8396Z" fill="#FFCF2D"/>
<path d="M182.499 59.0467C182.485 60.5188 181.367 61.6124 179.89 61.5985C178.413 61.5846 177.316 60.4701 177.33 58.998C177.344 57.5259 178.462 56.4323 179.939 56.4462C181.293 56.4589 182.513 57.5746 182.499 59.0467Z" fill="#FFCF2D"/>
<path d="M7.00796 2.6785C6.99411 4.15059 5.87599 5.24422 4.39902 5.23033C2.92204 5.21643 1.8247 4.10194 1.83855 2.62986C1.8524 1.15777 2.97052 0.0641347 4.4475 0.078033C5.92447 0.0919313 7.02182 1.20642 7.00796 2.6785Z" fill="#FFCF2D"/>
<path d="M29.0397 2.88553C29.0258 4.35762 27.9077 5.45126 26.4308 5.43736C24.9538 5.42346 23.8564 4.30897 23.8703 2.83689C23.8841 1.3648 25.0023 0.271166 26.4792 0.285064C27.8331 0.297804 29.0536 1.41345 29.0397 2.88553Z" fill="#FFCF2D"/>
<path d="M50.9479 3.09159C50.9341 4.56367 49.8159 5.65731 48.339 5.64341C46.862 5.62951 45.7646 4.51503 45.7785 3.04294C45.7923 1.57086 47.0335 0.478379 48.3874 0.491119C49.8644 0.505017 50.9618 1.6195 50.9479 3.09159Z" fill="#FFCF2D"/>
<path d="M72.9792 3.2996C72.9653 4.77168 71.8472 5.86532 70.3702 5.85142C68.8932 5.83752 67.7959 4.72303 67.8097 3.25095C67.8236 1.77887 69.0648 0.686387 70.4187 0.699127C71.7726 0.711867 72.993 1.82751 72.9792 3.2996Z" fill="#FFCF2D"/>
<path d="M95.0109 3.50663C94.997 4.97871 93.8789 6.07235 92.4019 6.05845C90.925 6.04455 89.8276 4.93007 89.8415 3.45798C89.8553 1.9859 90.9735 0.89226 92.4504 0.906158C93.8043 0.918898 95.0247 2.03454 95.0109 3.50663Z" fill="#FFCF2D"/>
<path d="M117.043 3.71366C117.029 5.18574 115.911 6.27938 114.434 6.26548C112.957 6.25158 111.859 5.1371 111.873 3.66501C111.887 2.19293 113.005 1.09929 114.482 1.11319C115.959 1.12709 117.056 2.24157 117.043 3.71366Z" fill="#FFCF2D"/>
<path d="M138.951 3.91971C138.937 5.3918 137.819 6.48544 136.342 6.47154C134.865 6.45764 133.768 5.34315 133.781 3.87107C133.795 2.39898 134.913 1.30535 136.39 1.31924C137.867 1.33314 138.965 2.44763 138.951 3.91971Z" fill="#FFCF2D"/>
<path d="M160.983 4.12772C160.969 5.5998 159.851 6.69344 158.374 6.67954C156.897 6.66565 155.799 5.55116 155.813 4.07908C155.827 2.60699 156.945 1.51335 158.422 1.52725C159.899 1.54115 160.996 2.65564 160.983 4.12772Z" fill="#FFCF2D"/>
<path d="M183.014 4.33475C183 5.80684 181.882 6.90047 180.405 6.88658C178.928 6.87268 177.831 5.75819 177.845 4.28611C177.859 2.81402 178.977 1.72038 180.454 1.73428C181.808 1.74702 183.028 2.86267 183.014 4.33475Z" fill="#FFCF2D"/>
<path d="M6.83609 20.9568C6.82224 22.4289 5.70412 23.5225 4.22714 23.5086C2.75017 23.4948 1.65398 22.2576 1.66668 20.9082C1.68053 19.4361 2.79865 18.3425 4.27562 18.3564C5.7526 18.3703 6.84994 19.4847 6.83609 20.9568Z" fill="#FFCF2D"/>
<path d="M28.8678 21.1639C28.854 22.6359 27.7359 23.7296 26.2589 23.7157C24.7819 23.7018 23.6846 22.5873 23.6984 21.1152C23.7123 19.6431 24.8304 18.5495 26.3074 18.5634C27.6613 18.5761 28.8817 19.6918 28.8678 21.1639Z" fill="#FFCF2D"/>
<path d="M50.7755 21.3709C50.7617 22.843 49.6436 23.9366 48.1666 23.9227C46.6896 23.9088 45.5923 22.7943 45.6061 21.3222C45.62 19.8502 46.7381 18.7565 48.2151 18.7704C49.692 18.7843 50.7894 19.8988 50.7755 21.3709Z" fill="#FFCF2D"/>
<path d="M72.8073 21.5779C72.7934 23.05 71.6753 24.1436 70.1983 24.1297C68.7214 24.1158 67.624 23.0014 67.6379 21.5293C67.6517 20.0572 68.7698 18.9635 70.2468 18.9774C71.7238 18.9913 72.8211 20.1058 72.8073 21.5779Z" fill="#FFCF2D"/>
<path d="M94.839 21.7849C94.8252 23.257 93.707 24.3507 92.2301 24.3368C90.7531 24.3229 89.6558 23.2084 89.6696 21.7363C89.6835 20.2642 90.8016 19.1706 92.2786 19.1845C93.6324 19.1972 94.8529 20.3129 94.839 21.7849Z" fill="#FFCF2D"/>
<path d="M116.871 21.992C116.857 23.4641 115.739 24.5577 114.262 24.5438C112.785 24.5299 111.687 23.4154 111.701 21.9433C111.715 20.4713 112.833 19.3776 114.31 19.3915C115.787 19.4054 116.885 20.5199 116.871 21.992Z" fill="#FFCF2D"/>
<path d="M138.779 22.199C138.765 23.6711 137.647 24.7647 136.17 24.7508C134.693 24.7369 133.596 23.6224 133.61 22.1504C133.623 20.6783 134.742 19.5846 136.218 19.5985C137.695 19.6124 138.793 20.7269 138.779 22.199Z" fill="#FFCF2D"/>
<path d="M160.811 22.406C160.797 23.8781 159.679 24.9718 158.202 24.9579C156.725 24.944 155.627 23.8295 155.641 22.3574C155.655 20.8853 156.773 19.7917 158.25 19.8056C159.727 19.8195 160.825 20.934 160.811 22.406Z" fill="#FFCF2D"/>
<path d="M182.842 22.6131C182.828 24.0852 181.71 25.1788 180.233 25.1649C178.756 25.151 177.659 24.0365 177.673 22.5644C177.686 21.0923 178.805 19.9987 180.281 20.0126C181.635 20.0253 182.856 21.141 182.842 22.6131Z" fill="#FFCF2D"/>
<path d="M6.32242 75.5467C6.30856 77.0187 5.19044 78.1124 3.71347 78.0985C2.23649 78.0846 1.13915 76.9701 1.153 75.498C1.16686 74.0259 2.28498 72.9323 3.76195 72.9462C5.23893 72.9601 6.33511 74.1973 6.32242 75.5467Z" fill="#FFCF2D"/>
<path d="M28.3537 75.7537C28.3398 77.2258 27.2217 78.3194 25.7447 78.3055C24.2677 78.2916 23.1704 77.1771 23.1843 75.705C23.1981 74.233 24.3162 73.1393 25.7932 73.1532C27.1471 73.166 28.3664 74.4043 28.3537 75.7537Z" fill="#FFCF2D"/>
<path d="M50.2619 75.9598C50.248 77.4318 49.1299 78.5255 47.6529 78.5116C46.1759 78.4977 45.0786 77.3832 45.0925 75.9111C45.1063 74.439 46.2244 73.3454 47.7014 73.3593C49.1784 73.3732 50.2746 74.6103 50.2619 75.9598Z" fill="#FFCF2D"/>
<path d="M72.2936 76.1678C72.2798 77.6398 71.1616 78.7335 69.6847 78.7196C68.2077 78.7057 67.1103 77.5912 67.1242 76.1191C67.138 74.647 68.2562 73.5534 69.7331 73.5673C71.2101 73.5812 72.3063 74.8183 72.2936 76.1678Z" fill="#FFCF2D"/>
<path d="M94.3253 76.3748C94.3115 77.8469 93.1934 78.9405 91.7164 78.9266C90.2394 78.9127 89.1421 77.7982 89.1559 76.3261C89.1698 74.8541 90.2879 73.7604 91.7649 73.7743C93.1188 73.7871 94.338 75.0254 94.3253 76.3748Z" fill="#FFCF2D"/>
<path d="M116.357 76.5818C116.343 78.0539 115.225 79.1475 113.748 79.1336C112.271 79.1197 111.174 78.0053 111.188 76.5332C111.202 75.0611 112.32 73.9675 113.797 73.9814C115.274 73.9953 116.37 75.2324 116.357 76.5818Z" fill="#FFCF2D"/>
<path d="M138.265 76.7879C138.251 78.26 137.133 79.3536 135.656 79.3397C134.179 79.3258 133.082 78.2113 133.096 76.7392C133.11 75.2671 134.228 74.1735 135.705 74.1874C137.182 74.2013 138.278 75.4385 138.265 76.7879Z" fill="#FFCF2D"/>
<path d="M160.297 76.9959C160.283 78.468 159.165 79.5616 157.688 79.5477C156.211 79.5338 155.113 78.4193 155.127 76.9472C155.141 75.4752 156.259 74.3815 157.736 74.3954C159.213 74.4093 160.309 75.6465 160.297 76.9959Z" fill="#FFCF2D"/>
<path d="M182.328 77.2029C182.314 78.675 181.196 79.7686 179.719 79.7547C178.242 79.7408 177.145 78.6263 177.159 77.1543C177.173 75.6822 178.291 74.5885 179.768 74.6024C181.122 74.6152 182.341 75.8535 182.328 77.2029Z" fill="#FFCF2D"/>
<path d="M6.15005 93.825C6.1362 95.2971 5.01808 96.3907 3.54111 96.3768C2.06413 96.3629 0.966789 95.2484 0.980641 93.7763C0.994494 92.3043 2.11261 91.2106 3.58959 91.2245C5.06656 91.2384 6.1639 92.3529 6.15005 93.825Z" fill="#FFCF2D"/>
<path d="M28.1818 94.032C28.1679 95.5041 27.0498 96.5977 25.5728 96.5838C24.0959 96.5699 22.9985 95.4555 23.0124 93.9834C23.0262 92.5113 24.1444 91.4177 25.6213 91.4315C26.9752 91.4443 28.1956 92.5599 28.1818 94.032Z" fill="#FFCF2D"/>
<path d="M50.09 94.2381C50.0761 95.7101 48.958 96.8038 47.481 96.7899C46.0041 96.776 44.9067 95.6615 44.9206 94.1894C44.9344 92.7173 46.0526 91.6237 47.5295 91.6376C49.0065 91.6515 50.1038 92.766 50.09 94.2381Z" fill="#FFCF2D"/>
<path d="M69.5128 96.9979C70.9403 97.0113 72.1083 95.8688 72.1217 94.4461C72.1351 93.0233 70.9888 91.859 69.5613 91.8456C68.1338 91.8322 66.9657 92.9747 66.9523 94.3974C66.9389 95.8202 68.0853 96.9845 69.5128 96.9979Z" fill="#FFCF2D"/>
<path d="M94.1535 94.6531C94.1396 96.1252 93.0215 97.2188 91.5445 97.2049C90.0675 97.191 88.9702 96.0765 88.9841 94.6045C88.9979 93.1324 90.116 92.0387 91.593 92.0526C92.9469 92.0654 94.1673 93.181 94.1535 94.6531Z" fill="#FFCF2D"/>
<path d="M116.185 94.8601C116.171 96.3322 115.053 97.4259 113.576 97.412C112.099 97.3981 111.002 96.2836 111.016 94.8115C111.03 93.3394 112.148 92.2458 113.625 92.2597C115.102 92.2736 116.199 93.3881 116.185 94.8601Z" fill="#FFCF2D"/>
<path d="M138.093 95.0662C138.079 96.5383 136.961 97.6319 135.484 97.618C134.007 97.6041 132.91 96.4896 132.924 95.0175C132.937 93.5455 134.055 92.4518 135.532 92.4657C137.009 92.4796 138.107 93.5941 138.093 95.0662Z" fill="#FFCF2D"/>
<path d="M157.516 97.826C158.943 97.8395 160.111 96.697 160.125 95.2742C160.138 93.8514 158.992 92.6872 157.564 92.6737C156.137 92.6603 154.969 93.8028 154.955 95.2256C154.942 96.6483 156.088 97.8126 157.516 97.826Z" fill="#FFCF2D"/>
<path d="M182.156 95.4812C182.143 96.9533 181.024 98.0469 179.547 98.0331C178.07 98.0192 176.973 96.9047 176.987 95.4326C177.001 93.9605 178.119 92.8669 179.596 92.8808C180.95 92.8935 182.17 94.0091 182.156 95.4812Z" fill="#FFCF2D"/>
<path d="M5.97818 112.103C5.96433 113.575 4.84621 114.669 3.36923 114.655C1.89226 114.641 0.794914 113.527 0.808766 112.055C0.822619 110.583 1.94074 109.489 3.41771 109.503C4.89469 109.517 5.99203 110.631 5.97818 112.103Z" fill="#FFCF2D"/>
<path d="M28.0099 112.31C27.9961 113.782 26.8779 114.876 25.401 114.862C23.924 114.848 22.8267 113.734 22.8405 112.262C22.8544 110.79 23.9725 109.696 25.4495 109.71C26.8033 109.723 28.0238 110.838 28.0099 112.31Z" fill="#FFCF2D"/>
<path d="M49.9181 112.517C49.9043 113.989 48.7861 115.083 47.3092 115.069C45.8322 115.055 44.7349 113.941 44.7487 112.469C44.7626 110.997 45.8807 109.903 47.3577 109.917C48.8346 109.931 49.932 111.045 49.9181 112.517Z" fill="#FFCF2D"/>
<path d="M71.9499 112.724C71.936 114.196 70.8179 115.29 69.3409 115.276C67.8639 115.262 66.7666 114.148 66.7804 112.676C66.7943 111.204 67.9124 110.11 69.3894 110.124C70.8664 110.138 71.9637 111.252 71.9499 112.724Z" fill="#FFCF2D"/>
<path d="M93.9816 112.931C93.9677 114.404 92.8496 115.497 91.3726 115.483C89.8957 115.469 88.7983 114.355 88.8122 112.883C88.826 111.411 89.9442 110.317 91.4211 110.331C92.775 110.344 93.9954 111.459 93.9816 112.931Z" fill="#FFCF2D"/>
<path d="M116.013 113.138C115.999 114.611 114.881 115.704 113.404 115.69C111.927 115.676 110.83 114.562 110.843 113.09C110.857 111.618 111.975 110.524 113.452 110.538C114.929 110.552 116.027 111.666 116.013 113.138Z" fill="#FFCF2D"/>
<path d="M137.921 113.346C137.907 114.818 136.789 115.911 135.312 115.897C133.835 115.883 132.738 114.769 132.752 113.297C132.765 111.825 133.884 110.731 135.361 110.745C136.838 110.759 137.935 111.873 137.921 113.346Z" fill="#FFCF2D"/>
<path d="M159.953 113.553C159.939 115.025 158.821 116.118 157.344 116.104C155.867 116.09 154.77 114.976 154.783 113.504C154.797 112.032 155.915 110.938 157.392 110.952C158.869 110.966 159.967 112.08 159.953 113.553Z" fill="#FFCF2D"/>
<path d="M181.985 113.76C181.971 115.232 180.853 116.325 179.376 116.311C177.899 116.297 176.801 115.183 176.815 113.711C176.829 112.239 177.947 111.145 179.424 111.159C180.778 111.172 181.998 112.287 181.985 113.76Z" fill="#FFCF2D"/>
<path d="M5.80728 130.26C5.79343 131.732 4.67531 132.825 3.19833 132.811C1.72136 132.797 0.624015 131.683 0.637868 130.211C0.65172 128.739 1.76984 127.645 3.24682 127.659C4.72379 127.673 5.81998 128.91 5.80728 130.26Z" fill="#FFCF2D"/>
<path d="M27.839 130.467C27.8252 131.939 26.707 133.032 25.2301 133.018C23.7531 133.005 22.6558 131.89 22.6696 130.418C22.6835 128.946 23.8016 127.852 25.2786 127.866C26.6324 127.879 27.8517 129.117 27.839 130.467Z" fill="#FFCF2D"/>
<path d="M49.7472 130.673C49.7334 132.145 48.6152 133.238 47.1383 133.224C45.6613 133.211 44.564 132.096 44.5778 130.624C44.5917 129.152 45.7098 128.058 47.1868 128.072C48.6637 128.086 49.7599 129.323 49.7472 130.673Z" fill="#FFCF2D"/>
<path d="M71.779 130.88C71.7651 132.352 70.647 133.445 69.17 133.431C67.693 133.418 66.5957 132.303 66.6095 130.831C66.6234 129.359 67.7415 128.265 69.2185 128.279C70.6955 128.293 71.7917 129.53 71.779 130.88Z" fill="#FFCF2D"/>
<path d="M93.8107 131.088C93.7968 132.56 92.6787 133.653 91.2017 133.64C89.7248 133.626 88.6274 132.511 88.6413 131.039C88.6551 129.567 89.7733 128.473 91.2502 128.487C92.6041 128.5 93.8234 129.738 93.8107 131.088Z" fill="#FFCF2D"/>
<path d="M115.842 131.295C115.828 132.767 114.71 133.86 113.233 133.847C111.756 133.833 110.659 132.718 110.673 131.246C110.686 129.774 111.805 128.68 113.281 128.694C114.758 128.708 115.855 129.945 115.842 131.295Z" fill="#FFCF2D"/>
<path d="M137.75 131.501C137.736 132.973 136.618 134.066 135.141 134.053C133.664 134.039 132.567 132.924 132.581 131.452C132.595 129.98 133.713 128.886 135.19 128.9C136.667 128.914 137.763 130.151 137.75 131.501Z" fill="#FFCF2D"/>
<path d="M159.782 131.708C159.768 133.18 158.65 134.274 157.173 134.26C155.696 134.246 154.599 133.131 154.612 131.659C154.626 130.187 155.744 129.093 157.221 129.107C158.698 129.121 159.795 130.358 159.782 131.708Z" fill="#FFCF2D"/>
<path d="M181.814 131.915C181.8 133.387 180.682 134.481 179.205 134.467C177.728 134.453 176.63 133.338 176.644 131.866C176.658 130.394 177.776 129.3 179.253 129.314C180.607 129.327 181.826 130.565 181.814 131.915Z" fill="#FFCF2D"/>
</g>
<defs>
<clipPath id="clip0_2234_9590">
<rect width="181.184" height="132.739" fill="white" transform="translate(1.86279 0.0537109) rotate(0.539137)"/>
</clipPath>
</defs>
</svg>
